<svg xmlns="http://www.w3.org/2000/svg" version="1.1" xmlns:xlink="http://www.w3.org/1999/xlink" xmlns:svgjs="http://svgjs.dev/svgjs" width="1920" height="1080"><svg xmlns="http://www.w3.org/2000/svg" version="1.1" viewBox="0 0 1920 1080">
  <!-- Generator: Adobe Illustrator 29.4.0, SVG Export Plug-In . SVG Version: 2.1.0 Build 152)  -->
  <defs>
    <style>
      .st0, .st1 {
        fill: #fff;
      }

      .st2, .st3, .st1 {
        isolation: isolate;
      }

      .st3 {
        font-size: 200px;
      }

      .st3, .st1 {
        font-family: MrDeHaviland-Regular, 'Mr De Haviland';
      }

      .st1 {
        font-size: 327.46px;
      }
    </style>
  </defs>
  <g id="SvgjsG1023">
    <g>
      <path d="M-1143.71,426.17c32.43,0,52.9,6.44,67.16,20.01,11.27,11.04,19.55,27.14,19.55,49.22,0,26.91-11.04,48.76-28.75,62.1-17.48,13.11-39.79,18.17-68.08,18.17h-53.82v-6.44c19.78-1.84,20.7-3.45,20.7-22.31v-91.77c0-19.78-2.76-20.7-20.7-22.54v-6.44h63.94ZM-1166.94,545.08c0,17.25,7.36,22.08,24.61,22.08,41.4,0,62.56-28.29,62.56-68.54,0-25.07-8.51-44.16-26.68-55.2-10.58-6.67-23.92-9.2-39.33-9.2-10.35,0-15.87,1.38-18.17,3.22-2.07,1.38-2.99,3.91-2.99,12.88v94.76Z"></path>
      <path d="M-985.7,575.67h-52.9v-6.44c14.49-1.38,15.87-2.53,15.87-17.48v-47.84c0-15.18-.92-15.87-14.26-17.48v-5.75c11.27-1.84,21.62-4.6,32.43-9.43v25.3c8.05-11.96,17.71-24.61,29.21-24.61,8.51,0,13.34,5.29,13.34,11.04,0,5.29-3.68,10.35-7.82,12.65-2.3,1.38-4.14,1.15-5.98-.46-3.45-3.45-6.21-5.75-10.35-5.75-4.83,0-13.34,7.13-18.4,18.86v43.24c0,15.18,1.15,16.33,18.86,17.71v6.44h0Z"></path>
      <path d="M-870.7,556.12c-14.72,18.4-30.82,22.31-38.18,22.31-28.06,0-45.08-23-45.08-49.45,0-15.64,5.52-30.13,14.95-40.25,9.66-10.81,22.31-16.79,34.27-16.79,20.01,0,35.19,17.25,35.19,35.65-.23,4.6-.92,6.67-4.6,7.59-4.6.92-34.04,2.99-61.41,3.91-.69,30.82,18.17,43.47,34.5,43.47,9.43,0,18.17-3.91,26.68-11.73l3.68,5.29h0ZM-910.26,480.68c-10.58,0-20.93,9.89-24.15,28.52,12.88,0,25.76,0,39.33-.69,4.14,0,5.52-1.15,5.52-4.6.23-12.19-7.82-23.23-20.7-23.23h0Z"></path>
      <path d="M-699.35,480.91c-11.73,1.84-13.8,4.37-18.63,17.25-6.67,17.71-17.71,49.68-27.6,80.04h-7.13c-9.2-24.61-18.63-48.53-27.6-72.22-8.51,21.16-18.86,46.69-28.06,72.22h-6.9c-8.28-27.37-17.02-54.51-26.45-82.11-4.14-12.42-6.21-13.8-17.48-15.18v-6.21h47.84v6.21c-13.8,2.3-14.72,3.45-11.5,14.03,5.29,17.71,11.5,36.57,17.02,53.82,9.2-23.46,18.4-47.38,27.37-72.91h6.21c8.51,23.92,17.94,48.76,27.6,73.6,5.06-14.03,12.42-36.57,16.79-53.36,2.99-11.96,1.15-13.11-14.49-15.18v-6.21h43.01v6.21h0Z"></path>
      <path d="M-518.12,462.28c-2.07-7.36-4.83-14.95-7.36-19.09-3.68-6.21-5.98-7.82-18.63-7.82h-23v112.01c0,17.94,1.84,20.47,23.69,21.85v6.44h-66.93v-6.44c21.39-1.38,23.23-3.68,23.23-21.85v-112.01h-20.93c-12.65,0-16.33,1.38-20.24,8.28-2.76,4.6-4.6,10.12-7.59,18.63h-6.9c1.38-14.03,2.76-28.52,3.45-41.4h5.29c3.45,5.52,5.98,5.29,12.42,5.29h91.08c6.44,0,8.28-.92,11.73-5.29h5.52c0,10.81.92,27.37,2.07,40.71l-6.9.69h0Z"></path>
      <path d="M-433.47,556.12c-14.72,18.4-30.82,22.31-38.18,22.31-28.06,0-45.08-23-45.08-49.45,0-15.64,5.52-30.13,14.95-40.25,9.66-10.81,22.31-16.79,34.27-16.79,20.01,0,35.19,17.25,35.19,35.65-.23,4.6-.92,6.67-4.6,7.59-4.6.92-34.04,2.99-61.41,3.91-.69,30.82,18.17,43.47,34.5,43.47,9.43,0,18.17-3.91,26.68-11.73l3.68,5.29h0ZM-473.03,480.68c-10.58,0-20.93,9.89-24.15,28.52,12.88,0,25.76,0,39.33-.69,4.14,0,5.52-1.15,5.52-4.6.23-12.19-7.82-23.23-20.7-23.23h0Z"></path>
      <path d="M-358.5,502.07c-4.14-13.34-10.12-22.54-24.15-22.54-8.05,0-14.26,5.75-14.26,14.95,0,9.89,6.67,14.49,19.55,20.47,19.78,9.43,29.67,16.33,29.67,31.51,0,21.16-19.32,31.97-37.49,31.97-11.96,0-22.54-3.68-27.37-6.44-1.15-6.67-3.22-19.32-4.14-26.91l6.67-1.15c4.14,14.72,12.19,26.68,28.29,26.68,8.74,0,16.1-5.98,16.1-15.64,0-10.35-6.21-15.64-18.4-21.62-16.1-7.82-29.21-15.18-29.21-31.74s14.26-29.67,35.88-29.67c9.66,0,17.48,2.3,22.08,2.99.69,5.52,2.3,20.01,3.45,25.53l-6.67,1.61h0Z"></path>
      <path d="M-289.73,575.44c-3.91,2.07-7.59,2.99-9.89,2.99-14.72,0-22.54-8.97-22.54-27.37v-66.93h-15.87l-.92-2.76,6.21-6.67h10.58v-19.32c4.37-4.6,11.04-10.58,15.41-15.18l3.45.46c-.46,9.66-.69,23-.69,34.04h26.22c2.07,2.3,1.38,7.36-1.38,9.43h-24.84v58.88c0,18.63,7.36,22.08,13.34,22.08,5.52,0,10.81-2.07,14.03-3.68l2.07,5.98-15.18,8.05h0Z"></path>
      <path d="M-265.12,575.67v-6.44c14.49-1.38,16.1-2.53,16.1-18.17v-47.38c0-14.26-.69-15.18-14.49-17.48v-5.52c11.96-2.07,22.77-5.06,32.66-9.2v79.58c0,15.64,1.61,16.79,16.56,18.17v6.44h-50.83ZM-241.2,448.94c-6.44,0-12.19-5.75-12.19-12.19,0-7.36,5.75-12.65,12.42-12.65s11.73,5.29,11.73,12.65c0,6.44-5.29,12.19-11.96,12.19h0Z"></path>
      <path d="M-136.55,575.67v-6.44c13.34-1.38,14.72-2.99,14.72-18.63v-37.95c0-16.1-5.75-26.91-20.93-26.91-9.43,0-18.4,5.52-25.53,11.96v53.82c0,15.87,1.38,16.33,14.95,17.71v6.44h-49.68v-6.44c15.18-1.61,16.56-2.53,16.56-17.71v-47.38c0-14.95-1.61-15.64-14.03-17.71v-5.98c11.27-1.84,22.54-4.83,32.2-9.2v18.17c4.6-3.22,9.66-6.67,15.64-10.58,6.44-4.14,12.42-6.9,19.09-6.9,18.4,0,29.9,13.57,29.9,35.88v43.7c0,15.64,1.38,16.33,14.72,17.71v6.44h-47.61,0Z"></path>
    </g>
    <g>
      <g class="st2">
        <text class="st3" transform="translate(-1687.33 576)" svgjs:data="{&quot;leading&quot;:&quot;1.3&quot;}"><tspan x="0" y="0">DJT</tspan></text>
      </g>
      <polygon points="-1830.95 510.9 -1776.13 499.87 -1729.32 482.02 -1737.32 510.9 -1729.32 539.78 -1776.13 521.93 -1830.95 510.9"></polygon>
      <polygon points="-1253.44 510.9 -1308.25 521.93 -1355.07 539.78 -1347.07 510.9 -1355.07 482.02 -1308.25 499.87 -1253.44 510.9"></polygon>
    </g>
  </g>
  <g id="SvgjsG1022">
    <path d="M960,6.78h12c287.67,0,521.22,233.55,521.22,521.22v12c0,294.29-238.93,533.22-533.22,533.22h0c-294.29,0-533.22-238.93-533.22-533.22h0C426.78,245.71,665.71,6.78,960,6.78Z"></path>
    <g>
      <g class="st2">
        <text class="st1" transform="translate(722.37 612.73)" svgjs:data="{&quot;leading&quot;:&quot;1.3&quot;}"><tspan x="0" y="0">DJT</tspan></text>
      </g>
      <polygon class="st0" points="487.21 506.14 576.97 488.08 653.62 458.86 640.52 506.14 653.62 553.43 576.97 524.2 487.21 506.14"></polygon>
      <polygon class="st0" points="1432.79 506.14 1343.04 524.2 1266.38 553.43 1279.48 506.14 1266.38 458.86 1343.04 488.08 1432.79 506.14"></polygon>
    </g>
  </g>
</svg><style>@media (prefers-color-scheme: light) { :root { filter: none; } }
@media (prefers-color-scheme: dark) { :root { filter: none; } }
</style></svg>